<mxfile host="app.diagrams.net" modified="2020-10-08T11:56:01.840Z" agent="5.0 (X11; Linux x86_64) AppleWebKit/537.36 (KHTML, like Gecko) Chrome/81.0.4044.138 Safari/537.36" etag="_Xwm81bA_p0trN2EM1yJ" version="13.7.8" type="github">
  <diagram id="48Rw8EEON0Y8QZROYkVs" name="Page-1">
    <mxGraphModel dx="1123" dy="645" grid="1" gridSize="10" guides="1" tooltips="1" connect="1" arrows="1" fold="1" page="1" pageScale="1" pageWidth="827" pageHeight="1169" math="0" shadow="0">
      <root>
        <mxCell id="0" />
        <mxCell id="1" parent="0" />
        <mxCell id="4eXbbOoHy4BMlG_0uedC-11" value="«Formatable»&lt;br&gt;&lt;b&gt;string format(Identifier i)&lt;/b&gt;" style="html=1;" parent="1" vertex="1">
          <mxGeometry x="80.00000000000003" y="360" width="150" height="60" as="geometry" />
        </mxCell>
        <mxCell id="4eXbbOoHy4BMlG_0uedC-12" value="«Renewable»&lt;br&gt;&lt;b&gt;string renewID(Identifier i)&lt;/b&gt;" style="html=1;" parent="1" vertex="1">
          <mxGeometry x="299.97" y="360" width="170" height="60" as="geometry" />
        </mxCell>
        <mxCell id="4eXbbOoHy4BMlG_0uedC-29" style="edgeStyle=orthogonalEdgeStyle;rounded=0;orthogonalLoop=1;jettySize=auto;html=1;" parent="1" source="4eXbbOoHy4BMlG_0uedC-13" edge="1">
          <mxGeometry relative="1" as="geometry">
            <mxPoint x="559.9999999999998" y="480" as="targetPoint" />
          </mxGeometry>
        </mxCell>
        <mxCell id="4eXbbOoHy4BMlG_0uedC-13" value="«GenerateId»&lt;br&gt;&lt;b&gt;string generateId()&lt;/b&gt;" style="html=1;" parent="1" vertex="1">
          <mxGeometry x="540" y="360" width="150" height="60" as="geometry" />
        </mxCell>
        <mxCell id="4eXbbOoHy4BMlG_0uedC-14" style="edgeStyle=orthogonalEdgeStyle;rounded=0;orthogonalLoop=1;jettySize=auto;html=1;" parent="1" source="4eXbbOoHy4BMlG_0uedC-3" edge="1">
          <mxGeometry relative="1" as="geometry">
            <mxPoint x="40" y="230" as="targetPoint" />
          </mxGeometry>
        </mxCell>
        <mxCell id="4eXbbOoHy4BMlG_0uedC-17" style="edgeStyle=orthogonalEdgeStyle;rounded=0;orthogonalLoop=1;jettySize=auto;html=1;" parent="1" source="4eXbbOoHy4BMlG_0uedC-3" edge="1">
          <mxGeometry relative="1" as="geometry">
            <mxPoint x="230" y="230" as="targetPoint" />
            <Array as="points">
              <mxPoint x="230" y="130" />
            </Array>
          </mxGeometry>
        </mxCell>
        <mxCell id="4eXbbOoHy4BMlG_0uedC-15" value="Passport" style="swimlane;fontStyle=0;childLayout=stackLayout;horizontal=1;startSize=26;fillColor=none;horizontalStack=0;resizeParent=1;resizeParentMax=0;resizeLast=0;collapsible=1;marginBottom=0;" parent="1" vertex="1">
          <mxGeometry y="230" width="140" height="50" as="geometry" />
        </mxCell>
        <mxCell id="4eXbbOoHy4BMlG_0uedC-16" value="+ field: type" style="text;strokeColor=none;fillColor=none;align=left;verticalAlign=top;spacingLeft=4;spacingRight=4;overflow=hidden;rotatable=0;points=[[0,0.5],[1,0.5]];portConstraint=eastwest;" parent="4eXbbOoHy4BMlG_0uedC-15" vertex="1">
          <mxGeometry y="26" width="140" height="24" as="geometry" />
        </mxCell>
        <mxCell id="4eXbbOoHy4BMlG_0uedC-18" value="SSN" style="swimlane;fontStyle=0;childLayout=stackLayout;horizontal=1;startSize=26;fillColor=none;horizontalStack=0;resizeParent=1;resizeParentMax=0;resizeLast=0;collapsible=1;marginBottom=0;" parent="1" vertex="1">
          <mxGeometry x="150" y="230" width="140" height="50" as="geometry" />
        </mxCell>
        <mxCell id="4eXbbOoHy4BMlG_0uedC-19" value="+ field: type" style="text;strokeColor=none;fillColor=none;align=left;verticalAlign=top;spacingLeft=4;spacingRight=4;overflow=hidden;rotatable=0;points=[[0,0.5],[1,0.5]];portConstraint=eastwest;" parent="4eXbbOoHy4BMlG_0uedC-18" vertex="1">
          <mxGeometry y="26" width="140" height="24" as="geometry" />
        </mxCell>
        <mxCell id="4eXbbOoHy4BMlG_0uedC-20" style="edgeStyle=orthogonalEdgeStyle;rounded=0;orthogonalLoop=1;jettySize=auto;html=1;exitX=0.857;exitY=1;exitDx=0;exitDy=0;exitPerimeter=0;entryX=0.5;entryY=0;entryDx=0;entryDy=0;" parent="1" source="4eXbbOoHy4BMlG_0uedC-4" target="4eXbbOoHy4BMlG_0uedC-21" edge="1">
          <mxGeometry relative="1" as="geometry">
            <mxPoint x="400" y="230" as="targetPoint" />
            <mxPoint x="299.97448275862075" y="140" as="sourcePoint" />
            <Array as="points">
              <mxPoint x="370" y="140" />
            </Array>
          </mxGeometry>
        </mxCell>
        <mxCell id="4eXbbOoHy4BMlG_0uedC-23" style="edgeStyle=orthogonalEdgeStyle;rounded=0;orthogonalLoop=1;jettySize=auto;html=1;" parent="1" source="4eXbbOoHy4BMlG_0uedC-4" edge="1">
          <mxGeometry relative="1" as="geometry">
            <mxPoint x="499.9999999999998" y="230" as="targetPoint" />
          </mxGeometry>
        </mxCell>
        <mxCell id="4eXbbOoHy4BMlG_0uedC-24" value="BirthCertificate" style="swimlane;fontStyle=0;childLayout=stackLayout;horizontal=1;startSize=26;fillColor=none;horizontalStack=0;resizeParent=1;resizeParentMax=0;resizeLast=0;collapsible=1;marginBottom=0;" parent="1" vertex="1">
          <mxGeometry x="450" y="230" width="140" height="50" as="geometry" />
        </mxCell>
        <mxCell id="4eXbbOoHy4BMlG_0uedC-25" value="+ field: type" style="text;strokeColor=none;fillColor=none;align=left;verticalAlign=top;spacingLeft=4;spacingRight=4;overflow=hidden;rotatable=0;points=[[0,0.5],[1,0.5]];portConstraint=eastwest;" parent="4eXbbOoHy4BMlG_0uedC-24" vertex="1">
          <mxGeometry y="26" width="140" height="24" as="geometry" />
        </mxCell>
        <mxCell id="4eXbbOoHy4BMlG_0uedC-26" style="edgeStyle=orthogonalEdgeStyle;rounded=0;orthogonalLoop=1;jettySize=auto;html=1;exitX=1.007;exitY=-0.158;exitDx=0;exitDy=0;exitPerimeter=0;" parent="1" source="4eXbbOoHy4BMlG_0uedC-4" edge="1">
          <mxGeometry relative="1" as="geometry">
            <mxPoint x="669.9999999999998" y="230" as="targetPoint" />
            <mxPoint x="340" y="118" as="sourcePoint" />
          </mxGeometry>
        </mxCell>
        <mxCell id="4eXbbOoHy4BMlG_0uedC-27" value="DriverLicense" style="swimlane;fontStyle=0;childLayout=stackLayout;horizontal=1;startSize=26;fillColor=none;horizontalStack=0;resizeParent=1;resizeParentMax=0;resizeLast=0;collapsible=1;marginBottom=0;" parent="1" vertex="1">
          <mxGeometry x="620" y="230" width="140" height="50" as="geometry" />
        </mxCell>
        <mxCell id="4eXbbOoHy4BMlG_0uedC-28" value="+ field: type" style="text;strokeColor=none;fillColor=none;align=left;verticalAlign=top;spacingLeft=4;spacingRight=4;overflow=hidden;rotatable=0;points=[[0,0.5],[1,0.5]];portConstraint=eastwest;" parent="4eXbbOoHy4BMlG_0uedC-27" vertex="1">
          <mxGeometry y="26" width="140" height="24" as="geometry" />
        </mxCell>
        <mxCell id="4eXbbOoHy4BMlG_0uedC-3" value="Identifier" style="swimlane;fontStyle=0;childLayout=stackLayout;horizontal=1;startSize=26;fillColor=none;horizontalStack=0;resizeParent=1;resizeParentMax=0;resizeLast=0;collapsible=1;marginBottom=0;" parent="1" vertex="1">
          <mxGeometry x="330" y="90" width="140" height="50" as="geometry" />
        </mxCell>
        <mxCell id="4eXbbOoHy4BMlG_0uedC-4" value="+ field: type" style="text;strokeColor=none;fillColor=none;align=left;verticalAlign=top;spacingLeft=4;spacingRight=4;overflow=hidden;rotatable=0;points=[[0,0.5],[1,0.5]];portConstraint=eastwest;" parent="4eXbbOoHy4BMlG_0uedC-3" vertex="1">
          <mxGeometry y="26" width="140" height="24" as="geometry" />
        </mxCell>
        <mxCell id="4eXbbOoHy4BMlG_0uedC-21" value="TaxID" style="swimlane;fontStyle=0;childLayout=stackLayout;horizontal=1;startSize=26;fillColor=none;horizontalStack=0;resizeParent=1;resizeParentMax=0;resizeLast=0;collapsible=1;marginBottom=0;" parent="1" vertex="1">
          <mxGeometry x="299.97" y="230" width="140" height="50" as="geometry" />
        </mxCell>
        <mxCell id="4eXbbOoHy4BMlG_0uedC-22" value="+ field: type" style="text;strokeColor=none;fillColor=none;align=left;verticalAlign=top;spacingLeft=4;spacingRight=4;overflow=hidden;rotatable=0;points=[[0,0.5],[1,0.5]];portConstraint=eastwest;" parent="4eXbbOoHy4BMlG_0uedC-21" vertex="1">
          <mxGeometry y="26" width="140" height="24" as="geometry" />
        </mxCell>
        <mxCell id="4eXbbOoHy4BMlG_0uedC-30" value="«GenerateStringID»&lt;br&gt;&lt;b&gt;string generateId()&lt;/b&gt;" style="html=1;" parent="1" vertex="1">
          <mxGeometry x="470" y="480" width="150" height="60" as="geometry" />
        </mxCell>
        <mxCell id="4eXbbOoHy4BMlG_0uedC-31" style="edgeStyle=orthogonalEdgeStyle;rounded=0;orthogonalLoop=1;jettySize=auto;html=1;exitX=0.533;exitY=1.054;exitDx=0;exitDy=0;exitPerimeter=0;" parent="1" source="4eXbbOoHy4BMlG_0uedC-13" edge="1">
          <mxGeometry relative="1" as="geometry">
            <mxPoint x="690" y="480" as="targetPoint" />
            <mxPoint x="625.0000000000002" y="430" as="sourcePoint" />
          </mxGeometry>
        </mxCell>
        <mxCell id="4eXbbOoHy4BMlG_0uedC-32" value="«GenerateintID»&lt;br&gt;&lt;b&gt;string generateId()&lt;/b&gt;" style="html=1;" parent="1" vertex="1">
          <mxGeometry x="630" y="480" width="150" height="60" as="geometry" />
        </mxCell>
      </root>
    </mxGraphModel>
  </diagram>
</mxfile>
